<?xml version="1.0" ?><svg id="Layer_1" style="enable-background:new 0 0 512 512;" version="1.0" viewBox="0 0 512 512" xml:space="preserve" xmlns="http://www.w3.org/2000/svg" xmlns:xlink="http://www.w3.org/1999/xlink"><style type="text/css">
	.st0{fill:none;stroke:#000000;stroke-miterlimit:10;}
	.st1{fill:none;stroke:#000000;stroke-linecap:round;stroke-linejoin:round;stroke-miterlimit:10;}
</style><g><g><g><path d="M394.2,225.3c-2.4,0-4.7-1-6.4-2.7l-37.3-37.3c-11.7-11.7-18.1-27.2-18.1-43.7s6.4-32,18.1-43.7     c24.1-24.1,63.3-24.1,87.4,0c11.7,11.7,18.1,27.2,18.1,43.7s-6.4,32-18.1,43.7l-37.3,37.3C398.9,224.3,396.6,225.3,394.2,225.3z      M394.2,98c-11.6,0-22.6,4.5-30.8,12.8c-8.2,8.2-12.8,19.2-12.8,30.9s4.5,22.6,12.8,30.8l30.8,30.9l30.8-30.9     c8.2-8.2,12.8-19.2,12.8-30.8s-4.5-22.6-12.8-30.9C416.8,102.6,405.8,98,394.2,98z"/></g><g><path d="M394.2,161.7c-13.7,0-24.9-11.2-24.9-24.9c0-13.7,11.2-24.9,24.9-24.9c13.7,0,24.9,11.2,24.9,24.9     C419.1,150.5,407.9,161.7,394.2,161.7z M394.2,130c-3.7,0-6.7,3-6.7,6.7s3,6.7,6.7,6.7c3.7,0,6.7-3,6.7-6.7S397.9,130,394.2,130z     "/></g></g><g><path d="M233.2,433.3C135.5,433.3,56,353.7,56,256S135.5,78.7,233.2,78.7c42.9,0,84,15.3,115.8,43.2l-12,13.7    c-28.5-24.9-65.3-38.6-103.8-38.6c-87.7,0-159.1,71.4-159.1,159.1s71.4,159.1,159.1,159.1c87.7,0,159.1-71.4,159.1-159.1    c0-13.5-1.7-26.8-5-39.5l17.6-4.6c3.7,14.2,5.5,29,5.5,44.1C410.5,353.7,331,433.3,233.2,433.3z"/></g><g><path d="M187.4,280.3c-8.7,0-17-3.7-22.9-10.3l-16-17.8c-1.9-2.1-4.2-2.2-5.4-2.2c-1.2,0.1-3.5,0.5-5.1,2.8    c-17.1,24.2-48.3,33.5-75.8,22.6c-4.7-1.8-7-7.1-5.1-11.8s7.1-7,11.8-5.1c19.7,7.8,42,1.1,54.3-16.2c4.4-6.3,11.3-10.1,18.9-10.5    c7.5-0.3,14.9,2.6,20,8.2l16,17.8c3,3.3,7.2,4.8,11.6,4c4.4-0.7,7.9-3.5,9.6-7.6c2-4.8,0.9-10.3-2.8-13.9    c-9.3-9.2-12.7-22.1-9.1-34.7c3.6-12.5,13.4-21.6,26.2-24.4c5.8-1.2,10.7-5,13.4-10.2c2.7-5.2,2.9-11.3,0.6-16.8l-26.3-61.3    c-2-4.6,0.1-10,4.8-11.9c4.6-2,9.9,0.1,11.9,4.8l26.3,61.3c4.5,10.4,4.1,22.2-1.1,32.3c-5.2,10.1-14.6,17.2-25.7,19.6    c-6.2,1.3-10.8,5.7-12.6,11.7c-1.7,6-0.1,12.2,4.3,16.6c9.1,8.9,11.8,22.2,6.9,33.9c-4.1,9.9-12.8,16.8-23.3,18.6    C190.9,280.1,189.1,280.3,187.4,280.3z"/></g><g><path d="M242.1,433c-4.8,0-8.8-3.7-9.1-8.6l-0.8-13.8c-0.9-15.1,5.8-29.6,17.8-38.8c12-9.2,27.7-11.8,42.1-6.9    c3.6,1.2,6.4-0.1,7.8-0.9c2.4-1.5,3.9-3.9,4.3-6.6l0.6-4.4c4.6-34.3,35.3-58.4,69.5-54.8l19.5,2c5,0.5,8.6,5,8.1,10    c-0.5,5-5.1,8.7-10,8.1l-19.5-2c-24.7-2.5-46.4,14.7-49.7,39.1l-0.6,4.4c-1.1,8.2-5.8,15.3-12.7,19.7c-7,4.3-15.4,5.3-23.2,2.7    c-8.7-2.9-17.9-1.4-25.2,4.2c-7.3,5.6-11.2,14.1-10.7,23.3l0.8,13.8c0.3,5-3.5,9.3-8.5,9.6C242.4,433,242.2,433,242.1,433z"/></g><g><path d="M165.5,391.9c-0.2,0-0.3,0-0.5,0c-3.6-0.2-6.7-2.4-8-5.7l-15.8-39.4c-3.4-8.4-2.3-17.9,2.7-25.4c5.1-7.5,13.5-12,22.6-12    c19.5,0,35.8-13.9,38.9-33.1c0.5-3.2,2.8-6.6,5.7-7.8c2.9-1.2,6.4-1.6,9,0.4l41.9,31.7c5.3,4,7.7,10.8,6,17.3    c-1.7,6.5-7,11.2-13.6,12.2c-34.5,4.9-64.8,26.3-81,57.1C172,390.1,168.9,391.9,165.5,391.9z M220.1,291.5    c-8.6,21.5-29.4,36.1-53.5,36.1c-3.1,0-5.8,1.5-7.5,4c-1.7,2.5-2.1,5.6-0.9,8.5l9.1,22.8c19.3-26.3,48.2-44.6,80.7-50.2    L220.1,291.5z"/></g></g></svg>